HIERARCHY
ROOT Hips
{
	OFFSET 0.000000 0.000000 0.000000
	CHANNELS 6 Xposition Yposition Zposition Xrotation Yrotation Zrotation
	JOINT LeftUpLeg_virtual
	{
		OFFSET 0.000000 0.000000 0.000000
		CHANNELS 3 Xrotation Yrotation Zrotation
		JOINT LeftUpLeg
		{
			OFFSET 10.205400 -3.823500 0.155100
			CHANNELS 3 Xrotation Yrotation Zrotation
			JOINT LeftLeg
			{
				OFFSET 0.708757 -12.982077 0.567790
				CHANNELS 3 Xrotation Yrotation Zrotation
				JOINT LeftFoot
				{
					OFFSET -0.708756 -10.717838 -2.184338
					CHANNELS 3 Xrotation Yrotation Zrotation
					JOINT LeftToeBase
					{
						OFFSET 0.108149 -7.191104 7.560241
						CHANNELS 3 Xrotation Yrotation Zrotation
						JOINT LeftToe_End
						{
							OFFSET 0.070230 0.081724 4.490308
							CHANNELS 3 Xrotation Yrotation Zrotation
							End Site
							{
								OFFSET 0 0 0
							}
						}
					}
				}
			}
		}
	}
	JOINT RightUpLeg_virtual
	{
		OFFSET 0.000000 0.000000 0.000000
		CHANNELS 3 Xrotation Yrotation Zrotation
		JOINT RightUpLeg
		{
			OFFSET -10.205400 -3.823500 0.005500
			CHANNELS 3 Xrotation Yrotation Zrotation
			JOINT RightLeg
			{
				OFFSET -0.708756 -12.982134 0.610632
				CHANNELS 3 Xrotation Yrotation Zrotation
				JOINT RightFoot
				{
					OFFSET 0.708754 -10.717769 -1.945823
					CHANNELS 3 Xrotation Yrotation Zrotation
					JOINT RightToeBase
					{
						OFFSET -0.108140 -7.191069 7.372968
						CHANNELS 3 Xrotation Yrotation Zrotation
						JOINT RightToe_End
						{
							OFFSET -0.070227 0.081735 4.479403
							CHANNELS 3 Xrotation Yrotation Zrotation
							End Site
							{
								OFFSET 0 0 0
							}
						}
					}
				}
			}
		}
	}
	JOINT Spine_virtual
	{
		OFFSET 0.000000 0.000000 0.000000
		CHANNELS 3 Xrotation Yrotation Zrotation
		JOINT Spine
		{
			OFFSET 0.000000 6.876099 0.125700
			CHANNELS 3 Xrotation Yrotation Zrotation
			JOINT Spine1
			{
				OFFSET 0.000000 5.730043 0.104720
				CHANNELS 3 Xrotation Yrotation Zrotation
				JOINT Spine1_split
				{
					OFFSET 0.000000 5.730043 0.104720
					CHANNELS 3 Xrotation Yrotation Zrotation
					JOINT Spine2
					{
						OFFSET 0.000000 5.730043 0.104720
						CHANNELS 3 Xrotation Yrotation Zrotation
						JOINT Neck_virtual
						{
							OFFSET 0.000000 0.000000 0.000000
							CHANNELS 3 Xrotation Yrotation Zrotation
							JOINT Neck
							{
								OFFSET 0.000000 10.314075 0.188496
								CHANNELS 3 Xrotation Yrotation Zrotation
								JOINT Head
								{
									OFFSET 0.000000 7.643700 -2.377400
									CHANNELS 3 Xrotation Yrotation Zrotation
									JOINT HeadTop_End
									{
										OFFSET 0.000000 43.788605 -13.619600
										CHANNELS 3 Xrotation Yrotation Zrotation
										End Site
										{
											OFFSET 0 0 0
										}
									}
								}
							}
						}
						JOINT LeftShoulder_virtual
						{
							OFFSET 0.000000 0.000000 0.000000
							CHANNELS 3 Xrotation Yrotation Zrotation
							JOINT LeftShoulder
							{
								OFFSET 2.196100 4.412489 0.087492
								CHANNELS 3 Xrotation Yrotation Zrotation
								JOINT LeftShoulder_split
								{
									OFFSET 2.196100 4.412489 0.087492
									CHANNELS 3 Xrotation Yrotation Zrotation
									JOINT LeftArm
									{
										OFFSET 8.771219 -2.981674 -0.026999
										CHANNELS 3 Xrotation Yrotation Zrotation
										JOINT LeftForeArm
										{
											OFFSET 8.512804 0.000000 -0.000000
											CHANNELS 3 Xrotation Yrotation Zrotation
											JOINT LeftHand
											{
												OFFSET 18.484802 0.000000 -0.000000
												CHANNELS 3 Xrotation Yrotation Zrotation
												End Site
												{
													OFFSET 0 0 0
												}
											}
										}
									}
								}
							}
						}
						JOINT RightShoulder_virtual
						{
							OFFSET 0.000000 0.000000 0.000000
							CHANNELS 3 Xrotation Yrotation Zrotation
							JOINT RightShoulder
							{
								OFFSET -2.196100 4.412496 0.070690
								CHANNELS 3 Xrotation Yrotation Zrotation
								JOINT RightShoulder_split
								{
									OFFSET -2.196100 4.412496 0.070690
									CHANNELS 3 Xrotation Yrotation Zrotation
									JOINT RightArm
									{
										OFFSET -8.771282 -2.981682 -0.094208
										CHANNELS 3 Xrotation Yrotation Zrotation
										JOINT RightForeArm
										{
											OFFSET -8.494598 0.000000 0.000000
											CHANNELS 3 Xrotation Yrotation Zrotation
											JOINT RightHand
											{
												OFFSET -18.483803 0.000000 0.000001
												CHANNELS 3 Xrotation Yrotation Zrotation
												End Site
												{
													OFFSET 0 0 0
												}
											}
										}
									}
								}
							}
						}
					}
				}
			}
		}
	}
}
MOTION
Frames: 11
Frame Time: 0.03333333
-2.222699 33.470013 -3.463820 0.000000 0.000000 0.000000 -10.503768 -1.215119 4.126725 -4.279133 6.992463 -3.770399 27.527139 0.693566 -2.878257 -18.605386 5.297510 3.665526 -0.973941 0.524455 0.195381 0.000000 0.000000 0.000000 -9.651071 -1.333429 3.954813 -7.230945 -11.705846 -16.896372 29.867932 3.167302 -0.060368 -11.791734 -16.410952 3.669481 -1.031949 -0.374467 -1.298662 0.000000 0.000000 0.000000 -9.844160 -0.976129 4.157205 6.706010 1.490541 -3.101568 14.405004 2.748101 -1.587867 0.494619 -1.718213 0.250275 0.000000 0.000000 0.000000 14.077739 2.500315 -2.122118 29.884178 -1.855784 -5.864173 0.994972 -1.593409 -5.277381 0.000000 0.000000 0.000000 14.951479 3.083088 -2.982824 -3.098905 -23.157382 -26.338565 -1.846565 -0.508174 -3.858845 -0.709645 -43.149235 -29.505099 9.682819 -24.844745 0.318375 0.000000 0.000000 0.000000 14.489727 3.111912 -2.450510 0.272445 23.120264 23.263751 -0.000475 0.798409 2.020816 -9.325647 20.311891 39.440903 35.764370 42.281002 -15.876927 0.000000 0.000000 0.000000 
-1.909870 33.699120 -3.336401 0.000000 0.000000 0.000000 -11.221370 -2.042124 4.711074 -1.053177 7.623501 -4.819561 24.843244 0.536298 -3.085342 -18.246097 4.975303 3.471020 -0.072916 0.617521 0.034404 0.000000 0.000000 0.000000 -10.470760 -1.335221 4.523040 -4.755268 -12.473684 -18.172540 27.309246 3.338907 -0.131707 -11.335617 -15.360814 4.015528 -0.897048 -0.525574 -1.221302 0.000000 0.000000 0.000000 -11.239652 -0.968829 4.645589 6.596951 1.406254 -3.846645 13.016424 2.840523 -1.984072 0.867546 -1.748794 0.225587 0.000000 0.000000 0.000000 12.601240 2.594003 -2.342955 28.336211 -1.087857 -5.887786 0.473657 -0.326689 -5.510178 0.000000 0.000000 0.000000 13.541750 3.159733 -3.126687 -1.838342 -22.104275 -22.905473 -2.234060 -0.394746 -3.423017 -0.945151 -40.184841 -32.260589 8.476183 -23.984062 0.147461 0.000000 0.000000 0.000000 13.212542 3.177597 -2.640634 0.852581 21.498432 22.023609 0.200532 0.717317 2.332028 -4.480805 22.733610 40.382701 33.634208 44.659482 -15.030762 0.000000 0.000000 0.000000 
-1.664710 33.818459 -3.171284 0.000000 0.000000 0.000000 -11.357216 -2.618777 5.057950 1.039488 7.987238 -5.700896 22.864724 0.468878 -3.113259 -18.030712 4.606299 3.368415 0.438114 0.664270 -0.028969 0.000000 0.000000 0.000000 -10.779995 -1.247786 4.905019 -3.103235 -12.880498 -19.213367 25.495027 3.576796 -0.093636 -11.134166 -14.400450 4.549632 -1.392289 -0.635580 -1.361156 0.000000 0.000000 0.000000 -11.846410 -0.717757 4.922476 6.392843 1.232822 -4.523641 11.611353 2.891551 -2.342223 1.062426 -1.801374 0.051454 0.000000 0.000000 0.000000 11.204167 2.637491 -2.565502 26.721119 -0.467881 -5.208255 -0.366866 0.644892 -5.410536 0.000000 0.000000 0.000000 12.129767 3.184385 -3.199717 -0.450796 -21.044883 -18.708559 -2.714973 -0.348791 -3.032772 -0.891641 -35.636181 -34.999727 8.853705 -24.625938 0.612201 0.000000 0.000000 0.000000 11.847230 3.165049 -2.817323 1.526883 19.707881 19.882923 0.336109 0.738000 2.503036 -0.473764 23.691519 41.842658 32.495735 46.368536 -15.100541 0.000000 0.000000 0.000000 
-1.503544 33.846909 -3.017069 0.000000 0.000000 0.000000 -11.173553 -2.916753 5.148081 2.002412 8.260354 -6.294176 21.703054 0.484469 -3.033383 -17.768240 4.215104 3.505255 0.476255 0.662168 0.054701 0.000000 0.000000 0.000000 -10.679763 -1.254954 5.090300 -2.273896 -12.921109 -20.081333 24.405308 3.877576 0.067992 -10.831229 -13.588680 5.293847 -2.341958 -0.710087 -1.660189 0.000000 0.000000 0.000000 -11.865049 -0.501372 4.953185 6.032240 1.022009 -5.003698 10.247436 2.880814 -2.614321 1.433106 -1.892837 -0.022748 0.000000 0.000000 0.000000 9.918587 2.609680 -2.753352 24.872540 0.000920 -4.105344 -1.582423 1.349810 -5.026839 0.000000 0.000000 0.000000 10.833375 3.114243 -3.238088 0.893572 -19.901658 -14.445056 -3.289799 -0.596660 -3.065584 -0.023400 -29.849761 -37.602558 10.703133 -25.557902 1.476976 0.000000 0.000000 0.000000 10.486044 3.082799 -2.961751 2.179488 17.875022 17.216839 0.004734 0.978930 2.745985 1.916528 22.765316 43.969230 32.500735 46.962448 -16.003883 0.000000 0.000000 0.000000 
-1.410347 33.825706 -2.899427 0.000000 0.000000 0.000000 -10.885593 -3.101284 5.037515 2.195410 8.518118 -6.669663 21.206115 0.648659 -2.888845 -17.630752 3.941951 4.081903 0.388861 0.636664 0.137723 0.000000 0.000000 0.000000 -10.363273 -1.512007 5.100481 -2.014227 -12.739309 -20.737431 23.869536 4.107585 0.312258 -10.348562 -13.072023 5.930544 -3.197687 -0.766617 -1.960925 0.000000 0.000000 0.000000 -11.483042 -0.589268 4.775205 5.545370 0.818107 -5.242919 8.959176 2.812895 -2.765707 1.629349 -1.665091 0.239204 0.000000 0.000000 0.000000 8.795013 2.518846 -2.871539 22.817676 0.351126 -2.992798 -2.977454 1.754129 -4.484585 0.000000 0.000000 0.000000 9.682161 2.972318 -3.258489 2.024553 -18.645558 -10.864948 -4.102522 -0.911917 -3.199500 0.905363 -23.456698 -40.310079 13.750738 -25.198861 2.433151 0.000000 0.000000 0.000000 9.217760 2.964094 -3.039619 2.712128 16.178290 14.609566 -0.592591 1.383703 3.123859 2.515116 20.023202 46.730426 33.405222 46.301244 -17.269877 0.000000 0.000000 0.000000 
-1.353549 33.794563 -2.802872 0.000000 0.000000 0.000000 -10.595637 -3.141994 4.817935 1.954208 8.766176 -6.924574 21.003819 0.928641 -2.695355 -17.718581 3.830446 4.907085 0.544211 0.627629 0.090520 0.000000 0.000000 0.000000 -9.984004 -1.954707 4.987244 -1.963751 -12.473571 -21.117727 23.521505 4.148149 0.615463 -9.988849 -12.897499 6.123127 -3.542704 -0.803395 -2.135620 0.000000 0.000000 0.000000 -11.002334 -1.000438 4.500421 4.923791 0.636195 -5.259730 7.784409 2.706426 -2.794221 1.812541 -1.548171 0.520179 0.000000 0.000000 0.000000 7.811015 2.389051 -2.880091 20.625204 0.571944 -2.243071 -4.182447 1.928530 -3.943779 0.000000 0.000000 0.000000 8.699021 2.789661 -3.213238 2.877893 -17.340628 -8.223071 -4.998841 -1.230672 -3.409798 0.659120 -16.775255 -43.401276 17.139043 -23.117682 2.990809 0.000000 0.000000 0.000000 8.117162 2.817988 -3.022415 3.081921 14.787105 12.518556 -1.380367 1.669343 3.771186 1.671703 15.919885 49.933928 34.810257 44.588588 -18.359513 0.000000 0.000000 0.000000 
-1.325729 33.785580 -2.723211 0.000000 0.000000 0.000000 -10.367920 -3.166892 4.598385 1.824683 8.995320 -7.081796 20.746853 1.149662 -2.487877 -17.995757 3.771729 5.516362 0.707126 0.649775 -0.017047 0.000000 0.000000 0.000000 -9.685232 -2.407712 4.848466 -1.796760 -12.298953 -21.215512 23.087697 3.971372 0.902031 -9.886574 -12.999246 5.849661 -3.463291 -0.795826 -2.154540 0.000000 0.000000 0.000000 -10.565449 -1.616246 4.227261 4.264920 0.486934 -5.145435 6.773542 2.573422 -2.740031 2.059091 -1.395995 0.831238 0.000000 0.000000 0.000000 6.949148 2.254338 -2.779683 18.423494 0.694960 -2.023157 -4.911160 1.969563 -3.543338 0.000000 0.000000 0.000000 7.829288 2.603310 -3.095044 3.417705 -15.981299 -6.663128 -5.904999 -1.572682 -3.242573 -0.889366 -9.827063 -46.468038 20.406884 -20.095743 2.906264 0.000000 0.000000 0.000000 7.238657 2.659051 -2.923543 3.327522 13.752483 11.218321 -1.948980 2.058022 4.025605 0.112970 11.269042 53.063774 36.374972 42.300567 -18.884148 0.000000 0.000000 0.000000 
-1.303450 33.804092 -2.614269 0.000000 0.000000 0.000000 -10.227287 -3.307273 4.451506 2.009519 9.140129 -7.154675 20.429246 1.221627 -2.258707 -18.236649 3.684284 5.701166 0.668456 0.692076 -0.154382 0.000000 0.000000 0.000000 -9.541533 -2.812993 4.736357 -1.401221 -12.258681 -21.116034 22.541450 3.668008 1.131347 -9.924558 -13.290202 5.413137 -3.379215 -0.745030 -2.053958 0.000000 0.000000 0.000000 -10.278867 -2.216911 4.049773 3.652292 0.362388 -5.003425 5.948337 2.444101 -2.658534 1.923107 -0.881132 0.941767 0.000000 0.000000 0.000000 6.221685 2.139737 -2.604138 16.324328 0.699676 -2.304938 -4.961785 1.810397 -3.316485 0.000000 0.000000 0.000000 7.057961 2.460558 -2.912553 3.718089 -14.661355 -5.956019 -6.408212 -2.221928 -2.735637 -3.572878 -2.941453 -49.090021 23.221257 -17.192542 2.239880 0.000000 0.000000 0.000000 6.576626 2.504580 -2.777250 3.447824 13.034701 10.682707 -2.304915 2.364331 3.671413 -1.455196 6.652649 55.696361 37.737813 39.798665 -18.654681 0.000000 0.000000 0.000000 
-1.281853 33.836655 -2.474005 0.000000 0.000000 0.000000 -10.183857 -3.549400 4.424708 2.540132 9.279737 -7.161043 20.264681 1.139936 -2.013629 -18.320225 3.440783 5.564154 0.483341 0.725717 -0.290397 0.000000 0.000000 0.000000 -9.584974 -3.132223 4.698708 -0.882513 -12.315885 -20.963572 21.929133 3.446681 1.278922 -9.944458 -13.543373 5.271937 -3.517074 -0.657784 -1.932062 0.000000 0.000000 0.000000 -10.157501 -2.569509 4.018671 3.144348 0.271985 -4.892129 5.321570 2.320074 -2.591533 1.826960 -0.425451 0.687988 0.000000 0.000000 0.000000 5.614734 2.036518 -2.407533 14.347169 0.595901 -2.838667 -4.408697 1.371531 -3.162157 0.000000 0.000000 0.000000 6.414968 2.359627 -2.700027 3.865792 -13.507603 -5.654606 -6.491516 -3.009091 -2.321479 -6.349001 3.261813 -51.088913 25.395753 -15.329842 1.266316 0.000000 0.000000 0.000000 6.094015 2.357778 -2.617744 3.432389 12.555609 10.653858 -2.465613 2.308328 2.591228 -2.611419 2.671345 57.661536 38.656828 37.531473 -17.802905 0.000000 0.000000 0.000000 
-1.274429 33.853783 -2.279427 0.000000 0.000000 0.000000 -10.240147 -3.979847 4.509432 3.359488 9.517619 -7.127263 20.295468 0.975411 -1.776518 -18.352889 3.028296 5.334657 0.288945 0.738438 -0.418552 0.000000 0.000000 0.000000 -9.756647 -3.411829 4.726559 -0.396837 -12.402305 -20.892191 21.418862 3.412660 1.309609 -9.929699 -13.657900 5.569832 -3.819157 -0.566289 -1.826703 0.000000 0.000000 0.000000 -10.162031 -2.649164 4.112135 2.834031 0.230271 -4.815012 4.868200 2.206706 -2.571484 1.536913 0.123039 0.346176 0.000000 0.000000 0.000000 5.175508 1.945541 -2.257280 12.469330 0.417537 -3.338290 -3.530703 0.573921 -2.931248 0.000000 0.000000 0.000000 5.898567 2.302887 -2.533042 3.934455 -12.674139 -5.500645 -6.054068 -3.828433 -1.952395 -7.925125 8.073076 -52.461802 27.078077 -14.862179 0.292754 0.000000 0.000000 0.000000 5.752531 2.233171 -2.487888 3.306665 12.172576 10.834605 -2.521070 2.240658 1.237998 -3.042867 -0.324135 59.039383 39.071165 35.756443 -16.594477 0.000000 0.000000 0.000000 
-1.271717 33.836723 -2.052860 0.000000 0.000000 0.000000 -10.379088 -4.479107 4.669196 4.271345 9.945859 -7.142446 20.428090 0.884928 -1.568605 -18.555725 2.523205 5.232848 0.211342 0.734275 -0.555589 0.000000 0.000000 0.000000 -9.983928 -3.728308 4.811108 0.041831 -12.494985 -20.941742 21.130676 3.479917 1.249503 -10.012029 -13.659999 6.077359 -4.043965 -0.518518 -1.766746 0.000000 0.000000 0.000000 -10.254170 -2.534332 4.289393 2.698842 0.242614 -4.732115 4.580278 2.118264 -2.581010 1.237149 0.607102 0.055257 0.000000 0.000000 0.000000 4.913936 1.859476 -2.183783 10.611005 0.180205 -3.588018 -2.622356 -0.650072 -2.430035 0.000000 0.000000 0.000000 5.551873 2.269972 -2.436736 3.993114 -12.294395 -5.224370 -5.404265 -4.514282 -1.968757 -7.587849 10.873221 -53.559092 28.235611 -15.507198 -0.418111 0.000000 0.000000 0.000000 5.502962 2.137687 -2.418361 3.080862 11.843726 10.947802 -2.448685 2.050929 0.048639 -2.645334 -2.158458 60.097687 38.940329 34.476807 -15.285934 0.000000 0.000000 0.000000 
